<?xml version="1.0" standalone="no"?>
<!DOCTYPE svg PUBLIC "-//W3C//DTD SVG 20010904//EN"
 "http://www.w3.org/TR/2001/REC-SVG-20010904/DTD/svg10.dtd">
<svg version="1.0" xmlns="http://www.w3.org/2000/svg"
 width="1024.000000pt" height="1024.000000pt" viewBox="0 0 1024.000000 1024.000000"
 preserveAspectRatio="xMidYMid meet">

<g transform="translate(0.000000,1024.000000) scale(0.100000,-0.100000)"
fill="#000000" stroke="none">
<path d="M5088 5969 l-3 -914 -163 300 c-117 215 -173 309 -200 333 -128 114
-309 200 -531 252 -47 11 -215 43 -375 71 -160 27 -300 52 -311 56 -17 5 -17
2 6 -28 14 -19 109 -149 212 -289 154 -213 197 -264 249 -303 134 -101 351
-188 713 -287 83 -23 207 -59 278 -82 l127 -40 0 -214 0 -214 50 0 50 0 2 442
3 441 85 29 c47 16 166 51 265 79 442 123 648 204 790 311 69 52 117 114 467
597 l31 44 -29 -6 c-16 -3 -101 -18 -189 -32 -577 -95 -785 -157 -971 -290
-33 -24 -74 -59 -90 -77 -16 -19 -103 -170 -194 -337 l-165 -303 -3 681 -2
681 -28 0 c-15 0 -37 3 -49 6 l-23 6 -2 -913z m1652 518 c0 -17 -59 -97 -71
-97 -15 0 -10 20 11 48 16 20 18 27 8 34 -10 6 -10 10 2 18 21 14 50 12 50 -3z
m-177 -32 c1 -11 -41 -22 -90 -24 -52 -2 -38 17 20 27 59 11 68 10 70 -3z
m-240 -40 c1 -5 -16 -13 -38 -17 -22 -4 -50 -10 -62 -13 -16 -4 -23 -1 -23 9
0 10 18 18 53 24 59 11 68 10 70 -3z m-235 -47 c-4 -11 -78 -38 -106 -38 -28
0 -4 25 34 37 51 15 77 16 72 1z m-228 -71 c0 -7 -25 -25 -55 -40 -39 -19 -55
-23 -55 -14 0 8 24 26 53 40 62 31 57 30 57 14z m710 -51 c-32 -45 -50 -57
-50 -36 0 20 65 98 74 90 5 -5 -6 -29 -24 -54z m-910 -72 c0 -4 -13 -22 -30
-41 -16 -18 -30 -38 -30 -43 0 -6 -7 -10 -15 -10 -24 0 -18 17 21 60 33 37 54
50 54 34z m803 -60 c3 -3 -11 -28 -31 -55 -47 -63 -67 -49 -22 15 33 46 41 52
53 40z m-2834 -143 c31 -39 39 -61 22 -61 -10 0 -71 79 -71 92 0 18 20 6 49
-31z m155 8 c18 -17 -4 -22 -55 -13 -74 13 -81 39 -8 29 30 -4 58 -11 63 -16z
m1746 1 c0 -16 -38 -88 -51 -95 -22 -14 -20 5 7 54 25 48 44 65 44 41z m-1506
-40 c17 -17 -2 -22 -55 -13 -30 4 -54 14 -57 22 -4 11 5 13 49 7 30 -4 58 -11
63 -16z m2285 -13 c-16 -15 -91 -57 -100 -57 -20 0 -4 19 41 48 26 17 49 26
54 21 5 -5 8 -10 5 -12z m-2081 -27 c39 -10 59 -30 30 -30 -12 0 -77 16 -106
25 -19 7 -3 27 16 21 10 -3 36 -10 60 -16z m220 -70 c36 -16 57 -40 35 -40
-20 0 -111 44 -107 52 8 12 25 10 72 -12z m-648 -99 c0 -23 -20 -9 -50 34 -17
25 -28 50 -25 55 7 11 75 -71 75 -89z m2300 90 c0 -5 -25 -19 -55 -30 -66 -25
-65 -25 -65 -8 0 7 19 20 43 29 49 18 77 22 77 9z m-707 -101 c-38 -66 -53
-48 -18 21 19 36 30 48 37 41 7 -7 1 -26 -19 -62z m-736 -24 c18 -16 30 -33
27 -38 -7 -11 -94 63 -94 80 0 17 12 9 67 -42z m1213 45 c0 -11 -110 -45 -118
-36 -9 9 10 23 48 33 46 13 70 14 70 3z m-230 -61 c0 -12 -33 -26 -84 -35 -54
-11 -45 11 12 28 59 19 72 20 72 7z m-1732 -85 c32 -46 39 -65 24 -65 -11 0
-72 85 -72 99 0 22 17 10 48 -34z m1500 13 c-4 -11 -88 -46 -116 -47 -31 -2
-2 24 44 40 59 21 77 23 72 7z m-629 -90 c21 -37 27 -54 18 -60 -13 -8 -70 89
-61 103 9 15 12 11 43 -43z m-698 -79 c31 -20 47 -35 41 -41 -11 -11 -102 41
-102 59 0 18 3 17 61 -18z m205 -95 c53 -18 71 -30 61 -40 -10 -11 -117 28
-117 42 0 17 -4 17 56 -2z m609 -33 c14 -28 21 -52 16 -55 -11 -7 -23 7 -50
62 -18 34 -19 42 -6 42 8 0 26 -22 40 -49z m-339 -51 c24 -10 33 -30 13 -30
-30 0 -119 33 -113 42 6 10 57 4 100 -12z m212 -60 c27 -7 42 -16 42 -26 0
-11 -5 -14 -17 -9 -10 3 -37 11 -60 18 -24 6 -43 17 -43 25 0 8 7 11 18 8 9
-3 36 -10 60 -16z m227 -70 c8 -16 15 -31 15 -33 0 -3 -20 3 -45 12 -25 9 -45
22 -45 29 0 9 7 11 20 7 11 -4 20 -2 20 4 0 21 20 11 35 -19z"/>
</g>
</svg>
