<?xml version="1.0" standalone="no"?>
<!DOCTYPE svg PUBLIC "-//W3C//DTD SVG 20010904//EN"
 "http://www.w3.org/TR/2001/REC-SVG-20010904/DTD/svg10.dtd">
<svg version="1.0" xmlns="http://www.w3.org/2000/svg"
 width="1024.000000pt" height="1024.000000pt" viewBox="0 0 1024.000000 1024.000000"
 preserveAspectRatio="xMidYMid meet">

<g transform="translate(0.000000,1024.000000) scale(0.100000,-0.100000)"
fill="#000000" stroke="none">
<path d="M5113 9978 c-221 -344 -390 -830 -434 -1247 -15 -144 -6 -479 16
-621 50 -319 154 -645 295 -924 l60 -119 -1 -286 c0 -164 -4 -275 -9 -261 -4
14 -27 84 -50 155 -168 519 -487 960 -945 1307 -166 125 -444 290 -571 338
l-27 11 6 -153 c16 -400 153 -883 349 -1233 207 -369 533 -708 925 -965 73
-48 175 -109 227 -136 l96 -49 -1 -600 0 -600 -35 115 c-39 128 -119 329 -171
433 -245 490 -709 946 -1235 1212 -81 41 -149 75 -152 75 -12 0 -6 -198 9
-316 66 -537 263 -1023 572 -1414 219 -277 598 -588 911 -748 l102 -53 0 -269
0 -270 -1200 0 -1200 0 0 -207 c0 -299 22 -509 80 -768 231 -1035 920 -1850
1784 -2109 224 -67 322 -81 601 -81 219 0 265 3 370 23 354 67 644 196 945
420 154 115 410 371 525 527 323 435 521 922 606 1493 16 103 22 208 26 420
l5 282 -1201 0 -1202 0 3 152 3 151 100 55 c422 230 819 593 1044 955 78 126
197 369 246 500 107 292 185 676 185 913 0 94 0 95 -22 89 -60 -18 -277 -136
-403 -219 -551 -363 -896 -799 -1106 -1396 l-48 -135 2 569 2 569 100 55 c404
220 797 572 1021 917 228 352 380 779 439 1238 16 126 20 307 7 307 -5 0 -73
-33 -153 -73 -220 -110 -413 -243 -631 -434 -338 -297 -577 -657 -739 -1113
l-48 -135 0 375 -1 376 55 99 c160 290 277 628 337 971 19 111 22 164 22 384
0 273 -10 364 -60 588 -53 239 -140 484 -244 693 -53 106 -129 239 -136 239
-2 0 -25 -33 -51 -72z m96 -310 c201 -429 297 -962 247 -1376 -39 -323 -142
-666 -286 -952 l-48 -95 -45 95 c-119 254 -211 570 -249 860 -19 145 -16 472
6 610 44 289 128 556 262 839 31 66 59 121 61 121 3 0 26 -46 52 -102z m-1404
-1694 c664 -440 1050 -1051 1170 -1851 21 -145 23 -139 -32 -107 -280 160
-603 434 -795 674 -290 365 -469 814 -543 1364 l-7 49 49 -28 c26 -15 98 -61
158 -101z m2800 -240 c-56 -382 -180 -737 -363 -1046 -164 -278 -480 -600
-787 -804 -103 -69 -210 -134 -219 -134 -30 0 57 421 135 650 174 514 465 904
932 1249 101 75 307 204 314 197 2 -2 -3 -52 -12 -112z m-2860 -1617 c251
-157 531 -404 702 -619 235 -296 403 -665 492 -1080 20 -95 51 -283 51 -313 0
-16 -147 70 -281 165 -273 195 -520 447 -696 710 -203 304 -347 720 -408 1173
l-6 48 33 -17 c18 -9 69 -40 113 -67z m2875 -172 c0 -3 -7 -51 -15 -107 -79
-525 -272 -980 -564 -1329 -151 -181 -373 -380 -576 -516 -95 -64 -222 -143
-230 -143 -9 0 -5 49 15 167 92 539 303 1000 616 1343 174 191 397 376 629
521 104 65 125 76 125 64z m827 -2917 c-18 -552 -171 -1086 -440 -1533 l-54
-90 -1831 -3 -1830 -2 -43 67 c-274 434 -436 990 -456 1566 l-6 177 2333 0
2333 0 -6 -182z m-618 -1795 c-100 -131 -273 -310 -404 -417 -126 -103 -171
-136 -184 -136 -6 0 -11 20 -11 45 l0 45 -105 0 -105 0 0 -75 0 -75 61 0 c33
0 58 -4 55 -9 -3 -4 -56 -33 -118 -64 -323 -160 -615 -225 -963 -214 -317 10
-612 91 -892 245 l-103 57 0 67 0 68 -96 0 c-97 0 -97 0 -143 37 -107 86 -316
303 -410 426 -13 16 70 17 1709 17 1639 0 1722 -1 1709 -17z"/>
<path d="M4280 695 l0 -76 108 3 107 3 3 73 3 72 -111 0 -110 0 0 -75z"/>
<path d="M4714 756 c-3 -7 -4 -40 -2 -72 l3 -59 108 -3 107 -3 0 76 0 75 -105
0 c-80 0 -107 -3 -111 -14z"/>
<path d="M5150 695 l0 -76 108 3 107 3 0 70 0 70 -107 3 -108 3 0 -76z"/>
<path d="M5582 698 l3 -73 108 -3 107 -3 0 76 0 75 -110 0 -111 0 3 -72z"/>
</g>
</svg>
